<?xml version="1.0" encoding="UTF-8"?>
<svg xmlns="http://www.w3.org/2000/svg" xmlns:xlink="http://www.w3.org/1999/xlink" width="24px" height="24px" viewBox="0 0 24 24" version="1.1">
<g id="surface1">
<path style=" stroke:none;fill-rule:nonzero;fill:rgb(100%,100%,100%);fill-opacity:1;" d="M 16.847656 3.671875 C 14.613281 3.652344 12.371094 3.5625 10.128906 3.621094 C 7.535156 3.683594 5.507812 3.839844 3.976562 5.914062 C 3.578125 6.90625 3.375 8.058594 3.277344 9.265625 C 3.257812 9.582031 3.242188 9.910156 3.21875 10.246094 C 3.132812 12.292969 3.273438 14.40625 3.226562 16.082031 C 3.441406 17.179688 3.867188 18.171875 4.65625 18.925781 C 7.28125 21.425781 12.621094 20.648438 16.117188 20.507812 C 17.796875 19.898438 19.195312 19.390625 19.945312 17.472656 C 20.539062 15.960938 20.441406 14.039062 20.484375 12.417969 C 20.5625 9.085938 20.710938 4.488281 16.847656 3.671875 Z M 16.847656 3.671875 "/>
<path style=" stroke:none;fill-rule:nonzero;fill:rgb(0%,0%,0%);fill-opacity:1;" d="M 15.820312 4.859375 C 20.289062 5.433594 18.980469 11.90625 18.855469 15.046875 C 18.785156 16.773438 18.476562 18.105469 16.695312 18.703125 C 14.355469 19.492188 10.902344 19.230469 8.515625 18.878906 C 6.917969 18.648438 5.664062 18.171875 5.222656 16.515625 C 4.523438 13.894531 4.722656 10.351562 5.027344 7.683594 C 5.035156 7.632812 5.050781 7.59375 5.070312 7.5625 C 5.113281 3.570312 13.5 4.558594 15.820312 4.859375 Z M 15.820312 4.859375 "/>
<path style=" stroke:none;fill-rule:nonzero;fill:rgb(100%,100%,100%);fill-opacity:1;" d="M 17.675781 7.292969 C 17.6875 6.191406 16.316406 5.84375 15.578125 6.519531 C 15.378906 6.703125 15.289062 6.984375 15.273438 7.289062 C 15.347656 7.679688 15.582031 8.066406 15.886719 8.285156 C 16.601562 8.789062 17.667969 8.121094 17.675781 7.292969 Z M 17.675781 7.292969 "/>
<path style=" stroke:none;fill-rule:nonzero;fill:rgb(100%,100%,100%);fill-opacity:1;" d="M 15.636719 9.433594 C 14.0625 7.046875 10.511719 6.8125 8.601562 8.925781 C 7.300781 10.367188 7.207031 12.761719 8.1875 14.464844 C 8.242188 14.484375 8.292969 14.515625 8.339844 14.570312 C 9.933594 16.347656 12.675781 16.992188 14.644531 15.382812 C 16.402344 13.941406 16.917969 11.367188 15.636719 9.433594 Z M 15.636719 9.433594 "/>
<path style=" stroke:none;fill-rule:nonzero;fill:rgb(0%,0%,0%);fill-opacity:1;" d="M 9.367188 12.699219 C 9.921875 14.265625 11.902344 15.507812 13.480469 14.539062 C 16.667969 12.589844 12.921875 7.289062 10.296875 9.640625 C 9.367188 10.1875 9.003906 11.671875 9.367188 12.699219 Z M 9.367188 12.699219 "/>
</g>
</svg>
