<?xml version="1.0" encoding="UTF-8"?>
<svg xmlns="http://www.w3.org/2000/svg" xmlns:xlink="http://www.w3.org/1999/xlink" width="24px" height="24px" viewBox="0 0 24 24" version="1.1">
<g id="surface1">
<path style=" stroke:none;fill-rule:nonzero;fill:rgb(0%,0%,0%);fill-opacity:1;" d="M 10.875 16.992188 C 9.003906 16.796875 7.316406 16.335938 5.875 15.207031 C 5.695312 15.066406 5.511719 14.929688 5.347656 14.773438 C 4.714844 14.167969 4.652344 13.472656 5.152344 12.753906 C 5.578125 12.140625 6.296875 11.976562 7.042969 12.332031 C 7.1875 12.398438 7.324219 12.484375 7.457031 12.574219 C 10.148438 14.421875 13.84375 14.472656 16.542969 12.65625 C 16.8125 12.453125 17.097656 12.285156 17.429688 12.199219 C 18.074219 12.035156 18.671875 12.273438 19.019531 12.835938 C 19.414062 13.480469 19.410156 14.109375 18.921875 14.609375 C 18.175781 15.375 17.277344 15.929688 16.28125 16.316406 C 15.335938 16.683594 14.304688 16.867188 13.28125 16.988281 C 13.433594 17.15625 13.507812 17.238281 13.605469 17.335938 C 14.992188 18.730469 16.386719 20.121094 17.773438 21.519531 C 18.242188 21.996094 18.34375 22.589844 18.082031 23.144531 C 17.796875 23.75 17.164062 24.148438 16.539062 24.105469 C 16.144531 24.078125 15.835938 23.882812 15.5625 23.605469 C 14.515625 22.550781 13.449219 21.515625 12.421875 20.441406 C 12.121094 20.128906 11.976562 20.1875 11.714844 20.460938 C 10.660156 21.546875 9.585938 22.613281 8.511719 23.675781 C 8.027344 24.15625 7.449219 24.242188 6.886719 23.96875 C 6.292969 23.679688 5.910156 23.070312 5.941406 22.457031 C 5.960938 22.042969 6.164062 21.726562 6.449219 21.445312 C 7.824219 20.070312 9.195312 18.695312 10.566406 17.320312 C 10.65625 17.230469 10.742188 17.132812 10.875 16.992188 Z M 10.875 16.992188 "/>
<path style=" stroke:none;fill-rule:nonzero;fill:rgb(0%,0%,0%);fill-opacity:1;" d="M 12.011719 12.210938 C 8.675781 12.199219 5.941406 9.433594 5.960938 6.089844 C 5.980469 2.714844 8.71875 -0.0078125 12.085938 0 C 15.460938 0.0078125 18.171875 2.769531 18.152344 6.183594 C 18.136719 9.519531 15.382812 12.222656 12.011719 12.210938 Z M 15.042969 6.097656 C 15.039062 4.441406 13.71875 3.121094 12.0625 3.117188 C 10.390625 3.117188 9.058594 4.460938 9.070312 6.136719 C 9.085938 7.789062 10.417969 9.097656 12.078125 9.09375 C 13.730469 9.085938 15.050781 7.757812 15.042969 6.097656 Z M 15.042969 6.097656 "/>
</g>
</svg>
