<?xml version="1.0" encoding="UTF-8"?>
<svg xmlns="http://www.w3.org/2000/svg" xmlns:xlink="http://www.w3.org/1999/xlink" width="24px" height="24px" viewBox="0 0 24 24" version="1.1">
<g id="surface1">
<path style=" stroke:none;fill-rule:nonzero;fill:rgb(0%,0%,0%);fill-opacity:1;" d="M 23.457031 4.441406 C 23.078125 4.609375 22.691406 4.75 22.296875 4.867188 C 22.765625 4.335938 23.121094 3.710938 23.339844 3.027344 C 23.390625 2.875 23.339844 2.707031 23.210938 2.609375 C 23.085938 2.507812 22.910156 2.496094 22.773438 2.578125 C 21.933594 3.078125 21.023438 3.433594 20.074219 3.644531 C 19.113281 2.707031 17.8125 2.175781 16.46875 2.175781 C 13.625 2.175781 11.316406 4.488281 11.316406 7.328125 C 11.316406 7.550781 11.328125 7.773438 11.355469 7.992188 C 7.832031 7.683594 4.554688 5.949219 2.304688 3.191406 C 2.222656 3.089844 2.101562 3.039062 1.972656 3.046875 C 1.847656 3.058594 1.734375 3.128906 1.667969 3.238281 C 1.214844 4.023438 0.972656 4.917969 0.972656 5.832031 C 0.972656 7.070312 1.414062 8.25 2.199219 9.167969 C 1.960938 9.085938 1.730469 8.984375 1.507812 8.863281 C 1.390625 8.796875 1.246094 8.796875 1.128906 8.863281 C 1.011719 8.933594 0.9375 9.054688 0.933594 9.191406 C 0.933594 9.214844 0.933594 9.238281 0.933594 9.261719 C 0.933594 11.113281 1.929688 12.78125 3.453125 13.691406 C 3.324219 13.679688 3.191406 13.660156 3.0625 13.632812 C 2.929688 13.609375 2.789062 13.65625 2.699219 13.757812 C 2.609375 13.859375 2.578125 14.003906 2.621094 14.132812 C 3.1875 15.894531 4.640625 17.191406 6.394531 17.585938 C 4.9375 18.5 3.273438 18.976562 1.523438 18.976562 C 1.160156 18.976562 0.792969 18.953125 0.433594 18.914062 C 0.253906 18.890625 0.0820312 18.996094 0.0234375 19.167969 C -0.0390625 19.335938 0.0273438 19.523438 0.179688 19.621094 C 2.425781 21.0625 5.023438 21.824219 7.691406 21.824219 C 12.9375 21.824219 16.21875 19.351562 18.046875 17.277344 C 20.328125 14.6875 21.636719 11.265625 21.636719 7.878906 C 21.636719 7.738281 21.632812 7.597656 21.628906 7.453125 C 22.53125 6.777344 23.304688 5.957031 23.933594 5.011719 C 24.03125 4.867188 24.019531 4.679688 23.910156 4.546875 C 23.796875 4.414062 23.613281 4.375 23.457031 4.441406 Z M 23.457031 4.441406 "/>
</g>
</svg>
