<svg width="411" height="356" xmlns="http://www.w3.org/2000/svg"><g fill="#333" fill-rule="evenodd" opacity=".03"><path d="M242.681 336.886l-5.838-15.8c6.948-2.076 18.897-6.552 24.248-9.53l-3.57 11.498 12.101 3.954c-7.32 3.614-16.194 6.983-26.94 9.878zm-35.993 14.9c-13.986 0-29.95-3.265-34.658-4.968l7.145-19.617c5.93 1.76 18.266 3.62 27.213 3.564h.567c8.948.057 21.267-1.804 27.225-3.564l7.133 19.617c-4.703 1.703-20.667 4.967-34.625 4.967zm-62.967-24.778l12.115-3.954-3.583-11.498c5.344 2.978 17.31 7.454 24.247 9.53l-5.847 15.8c-10.711-2.895-19.622-6.264-26.932-9.878zm126.67-3.486l-7.356-2.813 2.033-7.59 2.237-8.268s-13.04 7.062-31.42 12.36c-5.211 1.486-9.156 2.168-9.156 2.168v5.63s-9.835 1.703-19.762 1.703h-.571c-9.939 0-19.753-1.703-19.753-1.703v-5.63s-3.958-.682-9.16-2.169c-18.376-5.297-31.405-12.359-31.405-12.359l2.206 8.268 2.073 7.59-7.384 2.813-8.192 3.054c9.385 4.52 22.39 11.097 34.293 14.347l-2.808 7.654s15.098 6.857 40.239 6.921v.012h.345v-.012c25.174-.064 40.255-6.92 40.255-6.92l-2.816-7.655c11.904-3.25 24.929-9.827 34.273-14.347l-8.171-3.054zM172.27 22.379l3.376.337 1.462-2.938 4.258-8.687 7.907 3.9 3.06 1.49 2.44-2.302 8.528-8.065 8.553 8.065 2.447 2.302 3.06-1.49 7.863-3.9 4.32 8.687 1.428 2.938 3.385-.337 3.231-.372a70.919 70.919 0 00-3.352 8.692c-8.533-4.532-19.618-7.113-30.935-7.113-11.26 0-22.337 2.581-30.902 7.113-.787-2.496-1.871-5.515-3.349-8.692l3.22.372zm31.408 5.954c15.188 0 27.335 4.752 34.046 9.816 0 0 1.996-11.335 8.804-21.331l-12.232 1.31-6.402-12.833-12.29 5.983L203.679.155 191.79 11.278l-12.318-5.983-6.39 12.834-12.228-1.311c6.813 9.996 8.796 21.33 8.796 21.33 6.76-5.063 18.866-9.815 34.027-9.815zm192.265 190.21s-5.203 8.773-17.155 8.773h-.145c-14.347-.077-20.127-8.551-20.127-8.551s.83 11.022-4.336 25.903c-6.225 17.935.056 30.75.056 30.75s-3.353.877-7.208.877c-1.476 0-3.016-.143-4.468-.509-11.977-2.758-14.965-13.319-14.965-13.319s1.1 35.68-41.847 35.68h-.333s3.783-4.985 4.898-19.334c2.041-26.475 20.544-30.112 20.544-30.112s-9.875-1.2-14.155-4.915c-6.694-5.878-6.217-12.666-6.217-12.666 15.11-.206 25.009-5.187 32.55-13.641 8.174-9.154 9.514-19.015 9.514-19.015s-8.127 7.137-23.834 7.137c-1.384 0-2.86-.066-4.376-.21-7.436-.583-12.57-5.16-12.57-5.16 16.357-10.16 27.828-27.885 17.652-54.577-8.15-21.393-27.736-37.374-47.458-49.407-6.562-3.967-10.22-8.388-10.22-12.18 0-8.94 13.128-9.228 18.503-15.231 6.213-6.982 2.318-18.296-3.065-25.115 0 0 1.813-.358 4.673-.358 5.676 0 15.499 1.38 23.569 9.492 10.721 10.74 6.277 22.446 6.277 22.446l2.872.544c1.717.35 3.43.412 5.202.501.381 0 .774.02 1.151.02 15.58 0 22.538-15.77 22.538-15.77s16.558 19.725-7.821 35.189c-4.192 2.642-6.045 5.097-5.56 7.708l.382 1.714 1.732.3c17.669 4.642 26.613 16.45 37.531 29.874 16.586 20.413 40.038 21.074 42.934 21.074h.313s-5.35 16.369-21.126 16.369c-.265 0-.49 0-.75-.016-7.244-.252-10.966-2.937-10.966-2.937s-2.82 37.156 25.81 48.672zm-13.828-41.097c19.387 0 25.876-19.037 26.142-19.852l2.167-6.71-7.27.221h-.028c-2.557 0-23.954-.551-39.12-19.157l-1.431-1.727c-9.915-12.16-19.307-23.737-36.113-29.012.486-.427 1.182-.943 2.139-1.545 8.917-5.654 14.1-12.536 15.402-20.515 1.91-12.008-6.03-21.587-6.38-21.979l-5.396-6.443-3.377 7.646c-.221.478-5.89 12.715-17.828 12.715h-.884c-.816-.043-1.604-.074-2.364-.136.418-5.457-.611-13.902-8.552-21.831-9.545-9.54-21.249-10.972-27.364-10.972-3.269 0-5.44.392-5.681.415l-8.154 1.56 5.03 6.4c3.948 4.937 7.522 14.038 3.28 18.792-1.358 1.514-4.149 2.737-6.814 3.975-5.488 2.433-12.99 5.84-12.99 14.492 0 5.596 4.502 11.453 12.656 16.429 24.14 14.655 39.032 29.95 45.469 46.83 9.955 25.968-3.036 40.775-15.64 48.587l-5.661 3.509 4.953 4.39c.668.566 6.719 5.716 15.668 6.458 1.697.104 3.313.194 4.833.194 5.73 0 10.619-.87 14.587-2.042a35.896 35.896 0 01-4.125 5.628c-7.205 8.057-16.075 11.729-28.824 11.923l-4.74.077-.362 4.588c-.044.923-.398 9.43 7.94 16.665 1.275 1.122 2.815 2.042 4.44 2.79-5.662 4.922-11.411 13.48-12.52 28.147-.942 12.245-3.965 16.774-4.005 16.82l-5.231 7.72 9.46.12c15.64 0 27.61-4.16 35.908-12.415 4.905-4.883 7.708-10.398 9.364-15.276 2.722 2.235 6.232 4.199 10.816 5.243 1.737.392 3.634.605 5.697.605 4.414 0 8.117-.904 8.528-.997l6.039-1.552-2.67-5.442c-.193-.434-5.235-11.364.189-26.946 2.332-6.746 3.53-12.777 4.109-17.477 3.803 1.91 8.901 3.493 15.487 3.512 14.957 0 21.555-10.79 21.848-11.24l2.947-4.952-5.46-2.173c-17.827-7.145-21.771-26.334-22.563-36.716 1.608.303 3.45.579 5.528.633l.92.023z"/><path d="M360.424 97.002c3.528 0 7.641 1.166 11.535 5.063 12.21 12.02 23.565 12.69 23.565 12.69-2.063 4.435-8.046 8.321-14.242 8.321a13.38 13.38 0 01-4.298-.69c-8.4-2.75-11.406-14.964-26.159-22.576 0 0 4.114-2.808 9.599-2.808zm-12.05 6.804c7.045 3.64 11.156 8.522 14.757 12.846 3.538 4.226 6.889 8.288 12.147 9.978 1.865.62 3.848.916 5.87.916 7.88 0 15.8-4.681 18.805-11.16l3.02-6.493-7.307-.418c-.345-.008-9.75-.844-20.208-11.206-4.302-4.251-9.51-6.482-15.113-6.482-6.853 0-11.928 3.313-12.488 3.66l-6.716 4.586 7.233 3.773zm1.158 66.489v.255c-4.375-33.723-30.017-58.078-58.558-72.88-2.637-1.355-5.079-2.498-7.44-3.595 8.681 1.29 22.677 1.44 33.478-7.503 0 0-16.523 11.612-50.37 1.066 9.362 5.804 27.571 13.998 44.2 27.267 41.549 34.866 11.823 68.875 11.823 68.875 14.93-14.883 15.552-30.823 11.157-43.84 7.865 12.495 12.891 27.66 12.107 46.373-1.144 26.8-16.567 49.977-32.8 68.597-7.8 9.036-9.542 20.142-9.542 20.142s3.15-9.8 12.175-19.883c17.393-19.447 32.27-39.643 34.219-68.748 1.795 5.283 9.208 19.96 20.959 25.494 0 0-14.772-8.499-21.408-41.62M125.376 298.147c-42.954 0-41.855-35.68-41.855-35.68s-2.996 10.564-14.965 13.319c-1.432.365-2.964.509-4.464.509-3.855 0-7.188-.878-7.188-.878s6.245-12.814.02-30.75c-5.146-14.877-4.311-25.904-4.311-25.904s-5.776 8.475-20.132 8.556h-.144c-11.94 0-17.151-8.777-17.151-8.777C43.8 207.026 41 169.869 41 169.869s-3.723 2.685-10.978 2.938c-.265.015-.502.015-.754.015-15.784 0-21.134-16.37-21.134-16.37h.32c2.916 0 26.349-.66 42.922-21.074 10.918-13.424 19.875-25.228 37.515-29.875l1.773-.3.377-1.713c.49-2.61-1.356-5.066-5.547-7.708-24.38-15.464-7.826-35.187-7.826-35.187s6.927 15.767 22.542 15.767c.377 0 .738-.011 1.14-.011 1.752-.097 3.485-.16 5.202-.51l2.867-.543s-4.46-11.707 6.286-22.446c8.078-8.11 17.893-9.489 23.564-9.489 2.876 0 4.661.354 4.661.354-5.37 6.819-9.265 18.133-3.052 25.115 5.374 6.003 18.486 6.291 18.486 15.231 0 3.793-3.654 8.214-10.208 12.181-19.734 12.037-39.311 28.014-47.462 49.407-10.164 26.697 1.308 44.418 17.685 54.579 0 0-5.15 4.577-12.599 5.16a46.48 46.48 0 01-4.388.21c-15.69 0-23.817-7.138-23.817-7.138s1.352 9.865 9.474 19.02c7.593 8.45 17.48 13.431 32.59 13.637 0 0 .48 6.788-6.202 12.667-4.288 3.714-14.175 4.915-14.175 4.915s18.523 3.636 20.56 30.112c1.104 14.349 4.862 19.334 4.862 19.334h-.309zm4.548-3.37c-.012-.047-3.02-4.576-3.98-16.817-1.126-14.671-6.87-23.229-12.542-28.15 1.636-.75 3.155-1.67 4.438-2.79 8.333-7.231 7.98-15.743 7.92-16.666l-.322-4.588-4.772-.077c-12.707-.194-21.592-3.866-28.8-11.923a37.466 37.466 0 01-4.12-5.628c3.964 1.172 8.82 2.046 14.568 2.046 1.54 0 3.144-.094 4.837-.198 8.948-.742 15.006-5.888 15.682-6.459l4.952-4.39-5.656-3.508c-12.647-7.809-25.583-22.619-15.646-48.584 6.432-16.883 21.302-32.174 45.475-46.83 8.156-4.979 12.622-10.836 12.622-16.432 0-8.651-7.48-12.059-12.972-14.492-2.674-1.234-5.455-2.46-6.814-3.975-4.25-4.754-.667-13.855 3.276-18.788l5.061-6.404-8.188-1.56c-.242-.023-2.388-.415-5.669-.415-6.122 0-17.796 1.432-27.332 10.972-7.951 7.933-8.992 16.378-8.586 21.835-.768.058-1.54.089-2.356.132h-.872c-11.964 0-17.616-12.234-17.837-12.715l-3.36-7.646-5.448 6.447c-.306.388-8.265 9.967-6.332 21.975 1.287 7.98 6.48 14.86 15.397 20.52.969.597 1.644 1.113 2.13 1.54-16.823 5.275-26.21 16.852-36.115 29.012l-1.431 1.727c-15.143 18.606-36.578 19.157-39.143 19.157l-7.304-.221 2.223 6.71c.257.815 6.721 19.852 26.118 19.852l.936-.023c2.055-.054 3.892-.33 5.532-.633-.804 10.382-4.76 29.57-22.588 36.716l-5.444 2.173 2.947 4.953c.282.45 6.898 11.24 21.881 11.24 6.549-.02 11.638-1.604 15.449-3.51.579 4.697 1.773 10.728 4.112 17.474 5.423 15.582.374 26.512.181 26.95l-2.681 5.438 6.058 1.552c.398.093 4.12.997 8.518.997 2.059 0 3.964-.21 5.685-.605 4.587-1.04 8.132-3.008 10.83-5.243 1.644 4.878 4.458 10.393 9.346 15.276 8.322 8.255 20.281 12.415 35.907 12.415l9.47-.12-5.241-7.72z"/><path d="M36.9 102.065c3.901-3.897 8.016-5.063 11.564-5.063 5.454 0 9.584 2.808 9.584 2.808-14.74 7.616-17.777 19.83-26.198 22.58-1.391.48-2.833.686-4.272.686-6.189 0-12.185-3.882-14.229-8.32 0 0 11.349-.67 23.55-12.69m-9.2 25.48c2.027 0 4.006-.292 5.876-.912 5.272-1.695 8.623-5.753 12.162-9.983 3.622-4.32 7.686-9.207 14.737-12.848l7.259-3.77-6.738-4.59c-.564-.346-5.62-3.656-12.463-3.656-5.625 0-10.834 2.227-15.137 6.483-10.47 10.363-19.852 11.195-20.193 11.207l-7.302.414 2.998 6.498c3.018 6.475 10.931 11.157 18.802 11.157m40.471 58.767c-.813-18.706 4.219-33.871 12.093-46.375-4.388 13.018-3.794 28.959 11.163 43.846 0 0-29.739-34.014 11.838-68.882 16.622-13.269 34.818-21.464 44.18-27.268-33.839 10.543-50.364-1.062-50.364-1.062 10.798 8.944 24.792 8.793 33.471 7.5-2.341 1.097-4.813 2.24-7.43 3.595C94.57 112.47 68.937 136.83 64.54 170.554v-.255c-6.628 33.118-21.39 41.618-21.39 41.618 11.745-5.534 19.138-20.213 20.937-25.5 1.966 29.11 16.841 49.307 34.236 68.755 9.023 10.083 12.206 19.88 12.206 19.88s-1.763-11.102-9.605-20.139c-16.202-18.617-31.62-41.8-32.752-68.6m126.442-68.217v6.201c2.384-2.602 6.979-2.069 6.979-2.069v8.937s-.16 4.4-1.901 6.3h9.955c-1.717-1.9-1.889-6.3-1.889-6.3v-8.937s4.608-.533 6.97 2.07v-6.202h-20.113zm-4.957-36.73c3.25 2.638 5.119 3.075 5.18 3.117l1.267.6v-6.785l-11.92-5.135s.102 3.933 5.473 8.203m27.29 0c5.385-4.27 5.487-8.203 5.487-8.203l-11.92 5.135v6.784l1.259-.599c.065-.042 1.933-.479 5.174-3.117"/><path d="M202.57 60.498l-28.305-10.725c2.41-5.469 13.51-10.115 28.305-10.134 14.82.019 25.916 4.665 28.314 10.134L202.57 60.498zm21.453 34.272l-19.214 9.682V65.24l26.075-8.468-6.86 37.997zm12.227 10.914l8.71 4.887h.124l2.19 1.231c-4.92 1.317-8.675 3.695-11.834 6.812-.116.097-.217.213-.345.33a43.363 43.363 0 00-2.128 2.373c-.129.16-.265.322-.405.504a41.08 41.08 0 00-1.92 2.59c-.1.156-.217.307-.321.458a58.374 58.374 0 00-2.1 3.299c-6.206 10.324-16.103 16.497-24.906 16.513-8.795-.016-18.696-6.189-24.889-16.513a69.597 69.597 0 00-2.072-3.253c-.14-.197-.273-.403-.401-.57a59.35 59.35 0 00-1.844-2.49c-.156-.216-.305-.379-.461-.569a47.472 47.472 0 00-2.064-2.32c-.153-.112-.249-.255-.377-.371-3.175-3.125-6.919-5.476-11.842-6.793l2.21-1.231h.1l8.726-4.887 8.951-4.957 23.92 12.578.043-.05.068.05 23.915-12.578 8.952 4.957zm34.117 35.272c-1.96 5.01-3.578 10.432-3.578 15.824l.016 34.825c-7.507-1.221-8.393-9.055-8.421-9.395l-.14-1.596-1.615-.136c-3.265-.308-5.43-1.639-7.254-3.36-3.679-3.565-3.687-9.351-3.679-9.402-.052.297-4.054 5.727.592 11.662 1.948 2.493 4.782 4.034 8.44 4.638.862 4.347 4.2 10.484 12.077 11.416v17.042h-22.148c-10.216-5.509-5.885-15.2-5.691-15.618l.865-1.837-1.952-.718c-11.062-3.972-8.015-14.666-7.87-15.13l.447-1.557-1.506-.694c-9.129-4.105-7.897-15.15-7.773-15.618-2.813 2.212-3.824 6.71-1.891 11.127-1.043 1.163-2.448 2.56-3.99 4.104-9.46-2.337-9.753-10.756-9.753-11.146l-.02-1.295-1.244-.469c-3.691-1.322-6.227-3.312-7.48-5.984-1.4-2.954-.905-6.056-.522-7.546 1.086.242 2.161.406 3.192.488a33.11 33.11 0 003.252.175h.149c1.095 0 2.178-.07 3.245-.175 5.897-.566 12.49-3.02 19.366-9.625h44.886zm-27.74 150.53l2.46-12.42c.132-.73.288-1.587.396-2.3a11.04 11.04 0 002.223.655c.921.17 1.767.256 2.54.256 3.752 0 5.947-1.913 7.401-3.546l1.886-2.134-1.542-2.335c-.14-.233-3.556-5.463-6.175-9.04a47.686 47.686 0 01-1.51-2.161c-2.988-4.33-6.725-9.754-14.223-9.754l-.669.016c-1.237.073-2.294.31-3.156.624-2.355-1.063-4.786-1.618-7.313-1.618-3.104 0-5.707.83-7.45 1.401-.5.14-.94.295-1.293.357l-14.01-1.335c-.18-.035-.75-.36-1.446-1.16v-.066l3.032-1.175c-.857-9.785-10.554-15.802-15.957-17.84-.236-.98-.725-1.955-1.57-2.754l-3.012-2.766-2.647 3.073-1.306 1.567-19.62-7.806 12.764 15.523-5.035 7.39c-1.842 1.898.192 3.803.192 3.803l5.203 3.472 5.391-1.951c.188 0 .356.042.537.062-.265.795-.601 3.91-.825 4.78l-9.364-1.781-9.837 5.377c-5.055 3.6-5.747 9.552-3.869 13.626l1.09 2.312 1.553 3.263 3.44-1.381a.383.383 0 00.129-.054c-1.242 3.833-.733 7.472 1.47 9.858l2.09 2.541 2.78 3.407 3.052-3.178c.893-.865 3.813-4.027 4.706-6.731l.66-2.064-1.485-1.591-.248-.287 1.678-2.677 12.22 2.79 2.755.612 1.462-2.343.793-1.269c.152-.271.188-.314.753-.314.432 0 .865.043 1.33.144 4.618.842 8.867 1.264 12.644 1.264 3.66 0 5.851-.14 8.459-.977 0 0 6.56 7.224 6.784 7.495l-4.017 12.016-.18.726c-7.61.597-11.314 2.215-15.792 6.549-6.505-6.25-11.11-6.91-28.589-6.91-20.927 0-35.109-11.884-35.109-30.868v-46.405h127.368l.024 46.405c0 15.388-9.324 26.127-24.015 29.626zm-78.214-25.252l.672 1.636c-.444 1.433-5.5 3.457-5.5 3.457l-1.088-2.325c-1.161-2.475-.909-6.654 2.608-9.208l8.193-4.856 8.695 1.798c-.16 2.677 1.487 4.685 1.487 4.685l-9.106-1.703-5.448 3.66c-.925.626-.99 1.782-.513 2.856zm76.925 12.354l-2.737 13.908c-1.752.241-3.59.362-5.494.436l2.88-13.368c.862-3.97-10.085-5.21-15.49-13.022-2.642 2.893-7.613 3.76-12.612 3.76-4.556 0-9.112-.712-11.885-1.244a13.281 13.281 0 00-2.035-.183c-1.6 0-3.052.486-4.065 2.127l-.794 1.31-14.917-3.425-3.71 5.991c-.52.972-.563 1.785.283 2.695l1.01 1.073c-.7 2.115-3.799 5.32-3.799 5.32l-2.218-2.7c-1.756-1.912-1.468-5.416.363-8.655l5.916-9.736 12.635 1.777-1.958-4.359c-2.642-5.77 1.38-13.103 1.81-17.33-.147 1.276-1.352 1.563-2.748 1.563-1.277 0-2.7-.237-3.646-.237-.371 0-.69.039-.862.163l-3.423 2.022-2.697-2.325c-.331-.447-.431-1.493.363-2.278l6.248-6.836-7.385-8.406 10.34 5.062 3.16-3.729c.87.825.487 2.994.487 2.994 3.224.074 12.28 4.95 12.763 16.343.024.346.024.735.024 1.112 0 0 .084.14.24.373.638.86 2.41 3.056 4.643 3.258l14.295 1.38h.056c1.564 0 4.688-1.792 8.69-1.792 2.182 0 4.603.54 7.192 2.127 0 0 1.301-1.003 3.408-1.108.16-.02.343-.02.494-.02 6.408 0 9.073 5.65 12.512 10.336 2.585 3.577 6.048 8.877 6.048 8.877-1.28 1.473-2.466 2.298-4.453 2.298a9.37 9.37 0 01-1.847-.18c-6.874-1.232-7.863-15.008-11.789-16.093a2.323 2.323 0 00-.622-.082c-1.265 0-1.816 1.097-1.816 1.097 1.792 4.697.746 6.594 2.677 10.214 1.44 2.683 4.002 4.892 5.055 5.934 0 0-.287 2.034-.59 3.558zm-13.209 15.004c-1.981 0-3.807.027-5.44.085l4.304-12.646c.673-1.75-2.729-4.001-4.136-5.979 2.121 1.258 7.62 4.01 10.261 5.108-.266.41-4.989 13.432-4.989 13.432zm-62.804-115.025l.603-21.966 5.12-5.215 3.217 6.479-6.341 21.085-2.599-.383zm3.378 7.023c.82 1.724 2.291 2.872 3.327 3.53-.035 1.618-.188 4.123-.612 6.34-.102.497-.227.955-.365 1.404-.07.288-.153.525-.212.71-1.534 0-4.527-.185-6.987-1.085-2.719-1.01-6.776-6.023-5.842-11.554 1.173-.722 3.904-2.26 6.458-2.26 1.954 0 3.3.927 4.233 2.915zm59.2 5.586c-3.914 2.784-14.007 9.89-17.67 12.358l-35.223-6.108c.08-.304.164-.608.244-.905.459-1.763.934-4.17.958-7l29.608.457.568-.554c.45-.435 9.829-9.173 14.614-14.2a17.522 17.522 0 004.425 3.84c-.643 3.343-.371 8.103 2.477 12.112zm-47.643-50.22c4.254 4.108 8.42 6.667 12.38 8.072-.513 1.982-1.192 6.079.715 10.16 1.56 3.288 4.386 5.824 8.467 7.514.446 4.069 3.098 10.183 10.41 12.878a679.133 679.133 0 01-7.585 7.304l-29.688-.46c-.67-.324-1.822-1.065-2.336-2.103-.056-.148-.152-.226-.217-.367l4.844.757c.104.012.205.012.31.012.938 0 1.753-.628 1.905-1.56a1.9 1.9 0 00-1.6-2.166l-5.96-.913 6.61-22.204-6.265-12.816-10.033 10.32-.618 23.085-6.746-1.042c-1.04-.2-2.039.542-2.22 1.568-.164 1.015.55 1.978 1.61 2.162l2.83.417c-1.012.558-1.682 1.007-1.758 1.065l-.574.39-.16.687c-1.638 6.48 2.07 12.625 6.083 15.38l-.144.819a3.562 3.562 0 00.686 2.778c.586.83 1.473 1.33 2.484 1.506.205.035.425.05.622.05a3.77 3.77 0 003.676-2.875 33.79 33.79 0 003.796.21h.795l38.95 6.84.663-.425c3.102-2.107 14.937-10.487 18.817-13.269a16.502 16.502 0 003.697 2.372c-1.257 4.093-1.333 10.398 3.627 15.372H139.07V156.78c0-5.392-1.622-10.815-3.544-15.824h44.734zm-5.25-84.183l26.074 8.468v39.21l-19.198-9.681-6.876-37.997zm63.082-4.785c0-9.635-16.686-18.31-35.1-18.31h-.103c-18.413 0-35.1 8.675-35.1 18.31l.37 2.368 7.349 41.048-7.386 4.168-19.106 10.854h.069s-4.298 2.143-6.293 3.467c-7.278 4.911-8.824 12.086-4.598 15.046 1.041-5.847 5.796-11.954 14.696-11.954 6.408 0 11.295 3.218 15.232 8.035a38.267 38.267 0 012.88 3.919c1.105 1.764 2.219 3.318 3.316 4.806h-49.222c3.617 7.069 7.058 14.559 7.058 22.699v105.94c0 25.647 20.279 37.885 42.216 37.885 16.955 0 19.234-.756 28.59 8.307 9.313-9.063 11.596-8.307 28.563-8.307 21.954 0 42.205-12.238 42.205-37.885v-105.94c0-8.14 3.432-15.63 7.07-22.7h-49.239c1.094-1.487 2.203-3.041 3.313-4.805a44.917 44.917 0 012.86-3.919c3.977-4.837 8.851-8.035 15.264-8.035 8.892 0 13.638 6.107 14.692 11.954 4.23-2.96 2.7-10.135-4.619-15.046-1.962-1.324-6.264-3.467-6.264-3.467h.064l-19.138-10.854-7.353-4.168 7.353-41.048.36-2.368z"/></g></svg>