<?xml version="1.0" encoding="UTF-8"?>
<svg xmlns="http://www.w3.org/2000/svg" xmlns:xlink="http://www.w3.org/1999/xlink" width="24px" height="24px" viewBox="0 0 24 24" version="1.1">
<g id="surface1">
<path fill="currentColor" style=" stroke:none;fill-rule:nonzero;fill-opacity:1;" d="M 8.578125 4.632812 C 8.578125 4.480469 8.601562 4.160156 8.640625 3.664062 C 8.6875 3.167969 8.875 2.648438 9.207031 2.105469 C 9.542969 1.5625 10.082031 1.078125 10.832031 0.644531 C 11.578125 0.214844 12.65625 0 14.066406 0 L 18.035156 0 L 18.035156 4.324219 L 15.128906 4.324219 C 14.839844 4.324219 14.574219 4.433594 14.332031 4.644531 C 14.089844 4.859375 13.96875 5.0625 13.96875 5.25 L 13.96875 7.941406 L 18.035156 7.941406 C 17.992188 8.46875 17.945312 8.980469 17.890625 9.472656 L 17.730469 10.78125 C 17.664062 11.222656 17.597656 11.632812 17.535156 12.007812 L 13.9375 12.007812 L 13.9375 24 L 8.578125 24 L 8.578125 12.007812 L 5.964844 12.007812 L 5.964844 7.941406 L 8.578125 7.941406 Z M 8.578125 4.632812 "/>
</g>
</svg>
