<svg width="64" height="64" viewBox="0 0 64 64" fill="none" xmlns="http://www.w3.org/2000/svg">
<rect width="64" height="64" rx="20" fill="#1771E6"/>
<path d="M19.182 34.7947C20.022 39.9547 24.222 44.2747 29.502 45.1147C38.022 46.4347 45.342 39.1147 43.902 30.4747C43.062 25.3147 38.862 20.9947 33.582 20.1547C25.062 18.8347 17.742 26.1547 19.182 34.7947ZM26.502 30.5947L30.702 26.3947C30.702 26.3947 30.822 26.2747 30.942 26.2747C31.062 26.2747 31.062 26.1547 31.182 26.1547C31.302 26.0347 31.542 26.0347 31.662 26.0347C31.782 26.0347 32.022 26.0347 32.142 26.1547C32.262 26.1547 32.382 26.2747 32.502 26.3947L36.702 30.5947C37.182 31.0747 37.182 31.7947 36.702 32.2747C36.222 32.7547 35.502 32.7547 35.022 32.2747L32.862 30.1147V38.0347C32.862 38.7547 32.382 39.2347 31.662 39.2347C30.942 39.2347 30.462 38.7547 30.462 38.0347V30.1147L28.302 32.2747C27.822 32.7547 27.102 32.7547 26.622 32.2747C26.022 31.7947 26.022 31.0747 26.502 30.5947Z" fill="white"/>
</svg>
