<svg width="64" height="64" viewBox="0 0 64 64" fill="none" xmlns="http://www.w3.org/2000/svg">
<rect width="64" height="64" rx="20" fill="#1771E6"/>
<path fill-rule="evenodd" clip-rule="evenodd" d="M41.522 24C42.5132 24 43.316 24.8028 43.316 25.794V27.588H20V25.794C20 24.8028 20.804 24 21.794 24H41.522ZM35.2453 36.5548C35.2453 36.0592 34.8433 35.6584 34.3489 35.6584H23.5873C23.0917 35.6584 22.6909 36.0592 22.6909 36.5548C22.6909 37.0504 23.0917 37.4524 23.5873 37.4524H34.3489C34.8433 37.4524 35.2453 37.0504 35.2453 36.5548ZM28.9681 32.968H23.5873C23.0917 32.968 22.6909 33.37 22.6909 33.8644C22.6909 34.36 23.0917 34.7608 23.5873 34.7608H28.9681C29.4625 34.7608 29.8645 34.36 29.8645 33.8644C29.8645 33.37 29.4625 32.968 28.9681 32.968ZM21.7933 40.1416C20.8033 40.1416 20.0005 39.3388 20.0005 38.3488V30.2776H43.3153V38.3488C43.3153 39.3388 42.5125 40.1416 41.5225 40.1416H21.7933Z" fill="white"/>
</svg>
