<?xml version="1.0" encoding="UTF-8"?>
<svg xmlns="http://www.w3.org/2000/svg" xmlns:xlink="http://www.w3.org/1999/xlink" width="24px" height="24px" viewBox="0 0 24 24" version="1.1">
<g id="surface1">
<path fill="currentColor" style=" stroke:none;fill-rule:evenodd;fill-opacity:1;" d="M 20.65625 13.84375 C 21.453125 14.621094 22.292969 15.351562 23.003906 16.210938 C 23.320312 16.589844 23.621094 16.980469 23.847656 17.421875 C 24.171875 18.050781 23.878906 18.742188 23.316406 18.777344 L 19.820312 18.777344 C 18.917969 18.851562 18.199219 18.488281 17.59375 17.871094 C 17.109375 17.378906 16.660156 16.855469 16.195312 16.34375 C 16.003906 16.136719 15.804688 15.941406 15.566406 15.785156 C 15.089844 15.476562 14.675781 15.570312 14.402344 16.066406 C 14.125 16.574219 14.0625 17.132812 14.035156 17.699219 C 13.996094 18.523438 13.75 18.738281 12.921875 18.777344 C 11.152344 18.859375 9.476562 18.59375 7.917969 17.699219 C 6.542969 16.914062 5.480469 15.804688 4.550781 14.546875 C 2.746094 12.101562 1.363281 9.414062 0.121094 6.652344 C -0.160156 6.027344 0.046875 5.695312 0.734375 5.683594 C 1.875 5.660156 3.015625 5.664062 4.15625 5.679688 C 4.621094 5.6875 4.925781 5.953125 5.105469 6.390625 C 5.722656 7.910156 6.476562 9.351562 7.425781 10.691406 C 7.679688 11.046875 7.933594 11.402344 8.300781 11.65625 C 8.707031 11.933594 9.015625 11.839844 9.207031 11.386719 C 9.328125 11.101562 9.378906 10.792969 9.40625 10.488281 C 9.5 9.429688 9.511719 8.378906 9.351562 7.328125 C 9.253906 6.671875 8.886719 6.246094 8.230469 6.121094 C 7.894531 6.058594 7.945312 5.933594 8.105469 5.742188 C 8.386719 5.414062 8.652344 5.207031 9.179688 5.207031 L 13.132812 5.207031 C 13.753906 5.332031 13.890625 5.609375 13.976562 6.238281 L 13.980469 10.625 C 13.972656 10.867188 14.101562 11.585938 14.539062 11.75 C 14.886719 11.863281 15.117188 11.582031 15.328125 11.363281 C 16.273438 10.355469 16.949219 9.171875 17.550781 7.941406 C 17.820312 7.402344 18.050781 6.839844 18.273438 6.28125 C 18.4375 5.863281 18.695312 5.660156 19.164062 5.667969 L 22.96875 5.671875 C 23.082031 5.671875 23.195312 5.671875 23.304688 5.691406 C 23.945312 5.800781 24.121094 6.078125 23.921875 6.703125 C 23.609375 7.683594 23.003906 8.503906 22.410156 9.324219 C 21.777344 10.203125 21.097656 11.050781 20.46875 11.933594 C 19.890625 12.738281 19.9375 13.144531 20.65625 13.84375 Z M 20.65625 13.84375 "/>
</g>
</svg>
